<svg xmlns="http://www.w3.org/2000/svg" viewBox="0 0 31.56 32.51"><title>contact</title><g id="Layer_2" data-name="Layer 2"><g id="Layer_1-2" data-name="Layer 1"><path d="M18.12,13.72a4.64,4.64,0,1,0-4.58,0,6.27,6.27,0,0,0-4.48,5.7v.14a.75.75,0,0,0,.75.76h0l11.94-.14a.75.75,0,0,0,.74-.76A6.17,6.17,0,0,0,18.12,13.72Zm-7.5,5.07a5,5,0,0,1,4-3.82.91.91,0,0,0,.7-.91c0-.12.09-1.19-.64-1.49A3.14,3.14,0,1,1,19,9.68a3.15,3.15,0,0,1-2.08,3c-.3.11-.64.4-.59,1.2s.49,1.1.75,1.15a4.88,4.88,0,0,1,3.85,3.68Z"/><path d="M27.71,0H3.85A3.85,3.85,0,0,0,0,3.85V21.34a3.85,3.85,0,0,0,3.85,3.85h7.43v6.58a.75.75,0,0,0,1.25.56l8-7.14h7.24a3.85,3.85,0,0,0,3.85-3.85V3.85A3.85,3.85,0,0,0,27.71,0Zm2.35,21.34a2.35,2.35,0,0,1-2.35,2.35H20.19a.75.75,0,0,0-.5.19l-6.92,6.21V24.43a.75.75,0,0,0-.75-.75H3.85A2.35,2.35,0,0,1,1.5,21.34V3.85A2.35,2.35,0,0,1,3.85,1.5H27.71a2.35,2.35,0,0,1,2.35,2.35Z"/></g></g></svg>