<svg xmlns="http://www.w3.org/2000/svg" viewBox="0 0 26.06 33.07"><title>creations-icon</title><g id="Layer_2" data-name="Layer 2"><g id="Layer_1-2" data-name="Layer 1"><path d="M17.71,0H4.26A4.5,4.5,0,0,0,0,4.7V28.38a4.5,4.5,0,0,0,4.26,4.7H21.8a4.5,4.5,0,0,0,4.26-4.7V8ZM21.8,31.57H4.26a3,3,0,0,1-2.76-3.2V4.7A3,3,0,0,1,4.26,1.5H17.11l.11.11V5.69A3.41,3.41,0,0,0,20.73,9h3.82V28.38A3,3,0,0,1,21.8,31.57Z"/><path d="M21,10.83A11.36,11.36,0,0,0,14.16,12a11.44,11.44,0,0,0-3,2.36H6.8a1,1,0,0,0-.74.3l-3,2.89a1,1,0,0,0,0,1.48l0,0,1.29,1.29a1.09,1.09,0,0,0,1.42.07,3.11,3.11,0,0,1,1.89-.72c-.31.62-.59,1.2-.81,1.68l-.15.31L11,26l.31-.15c.49-.23,1.09-.52,1.74-.84a3.29,3.29,0,0,1-.78,2,1,1,0,0,0,.07,1.42l1.23,1.23a1,1,0,0,0,1.48,0l0,0,3-3a1,1,0,0,0,.3-.74V21.54a11.44,11.44,0,0,0,2.35-3A11.37,11.37,0,0,0,21.9,11.7,1,1,0,0,0,21,10.83ZM19.85,18.1h0A10.6,10.6,0,0,1,17.53,21l-.16.15v4.82a.08.08,0,0,1,0,.06l-3,3a.08.08,0,0,1-.11,0L13,27.72a.08.08,0,0,1,0-.11,4.54,4.54,0,0,0,1-3.42L14,23.44l-.66.35c-.75.4-1.49.76-2.09,1L7.92,21.52c.28-.59.63-1.31,1-2l.35-.67-.76-.06H8a4.23,4.23,0,0,0-2.83,1,.07.07,0,0,1-.1,0h0L3.78,18.42a.08.08,0,0,1,0-.11h0l3-2.9.06,0h4.83l.15-.16a10.61,10.61,0,0,1,2.86-2.32,10.44,10.44,0,0,1,6.29-1.08A10.33,10.33,0,0,1,19.85,18.1Z"/></g></g></svg>