<svg xmlns="http://www.w3.org/2000/svg" viewBox="0 0 32.69 32.69"><title>hobbies-icon</title><g id="Layer_2" data-name="Layer 2"><g id="Layer_1-2" data-name="Layer 1"><path d="M28.94,6.57a2.16,2.16,0,0,1,2.55,0,.75.75,0,0,0,1.2-.6V.75A.75.75,0,0,0,31.94,0H.75A.75.75,0,0,0,0,.75V31.94a.75.75,0,0,0,.75.75H21.46a.75.75,0,0,0,.6-1.2,2.16,2.16,0,1,1,3.45,0,.75.75,0,0,0,.6,1.2h5.84a.75.75,0,0,0,.75-.75V10.65a.75.75,0,0,0-1.2-.6,2.17,2.17,0,0,1-1.3.44h0a2.16,2.16,0,0,1-1.25-3.92ZM1.5,1.5h14V6a.75.75,0,0,0,.39.69.7.7,0,0,0,.76-.06l.09-.06L17,6.41a2.2,2.2,0,0,1,.35-.14l.33-.08a2.14,2.14,0,0,1,2.47,2.14A2.17,2.17,0,0,1,18,10.49a2.48,2.48,0,0,1-.41,0l-.3-.08a2.3,2.3,0,0,1-.34-.16l-.24-.15a.75.75,0,0,0-1.21.59v5.08h-3c0-.1.05-.21.07-.31l0-.15a3.55,3.55,0,0,0,0-.54,3.66,3.66,0,1,0-7.33,0,3.53,3.53,0,0,0,0,.53l0,.15a3.16,3.16,0,0,0,.08.32H1.5ZM15.74,31.19H1.5v-14H6.58a.75.75,0,0,0,.65-.44A.8.8,0,0,0,7.16,16L7,15.73a2.22,2.22,0,0,1-.14-.36A2.43,2.43,0,0,1,6.77,15a2,2,0,0,1,0-.3,2.16,2.16,0,0,1,4.33,0,2.41,2.41,0,0,1,0,.41,2.82,2.82,0,0,1-.08.31,2.06,2.06,0,0,1-.16.34l-.15.24a.75.75,0,0,0,.59,1.21h4.5v3.6a3.67,3.67,0,1,0,0,7.05Zm15.45,0H27.31a3.67,3.67,0,1,0-7.05,0h-3v-4.5a.75.75,0,0,0-1.2-.6,2.16,2.16,0,1,1,0-3.45.75.75,0,0,0,1.2-.6V17h3a3.67,3.67,0,1,0,7.06,0h3.88ZM26.7,9.45A3.65,3.65,0,0,0,30.19,12h0a3.66,3.66,0,0,0,1-.14v3.6H26.11a.75.75,0,0,0-.6,1.2,2.16,2.16,0,1,1-3.46,0,.75.75,0,0,0-.6-1.2H17V11.85l.31.07.15,0A3.6,3.6,0,0,0,18,12a3.66,3.66,0,1,0,0-7.33,3.53,3.53,0,0,0-.53,0l-.15,0L17,4.81V1.5H31.19V4.81A3.67,3.67,0,0,0,26.7,9.45Z"/></g></g></svg>