<svg xmlns="http://www.w3.org/2000/svg" viewBox="0 0 30.65 32.69"><title>inspiration-icon</title><g id="Layer_2" data-name="Layer 2"><g id="Layer_1-2" data-name="Layer 1"><path d="M30.26,9.38a12.14,12.14,0,0,0-2-4.28,11.55,11.55,0,0,0-3.61-3.2A14.1,14.1,0,0,0,19.72.2,15.65,15.65,0,0,0,17.85,0L17.3,0h-.87c-.57,0-1.15.06-1.75.12a14.92,14.92,0,0,0-4.27,1A11,11,0,0,0,6.73,3.61l-.11.09a15.84,15.84,0,0,0-4.17,9.14.75.75,0,0,0,0,.19,3,3,0,0,0,.05.74.78.78,0,0,0,0,.15,2.6,2.6,0,0,0,.18.48c-.87,1.33-1.51,2.31-1.92,3-.7,1.16-.9,2-.64,2.56s.67,1,1.67,1.45a2.14,2.14,0,0,0,.11,1.44l0,0L2,23a1.52,1.52,0,0,0,.68,1.92,3.62,3.62,0,0,0,.22,3.63c.65,1,1.83,1.43,3.52,1.36a5.38,5.38,0,0,0,.6-.06H7l.14,0h.1l1.66-.22c0,.21.06.5.11.89a14.57,14.57,0,0,1,0,1.5.75.75,0,0,0,.75.76H25.72a.75.75,0,0,0,.71-1,14.5,14.5,0,0,1-.82-7.53l0-.06A4.81,4.81,0,0,1,26.08,23c.13-.25.36-.64.69-1.16.17-.26.52-.73,1.07-1.41A17,17,0,0,0,29,18.78a12.57,12.57,0,0,0,1.55-4.68A12.75,12.75,0,0,0,30.26,9.38Zm-1.19,4.53A11.07,11.07,0,0,1,27.7,18a15.25,15.25,0,0,1-1,1.51c-.58.71-1,1.21-1.16,1.52q-.55.86-.76,1.28a6.37,6.37,0,0,0-.54,1.3l0,.1a14.83,14.83,0,0,0,.53,7.44H10.54a7.45,7.45,0,0,0,0-1c-.06-.43-.1-.74-.12-.94a.72.72,0,0,0,0-.21,1.48,1.48,0,0,0-.38-.81.75.75,0,0,0-.32-.19A1.79,1.79,0,0,0,9,28l-1.92.26-.28,0h0a3.81,3.81,0,0,1-.47,0c-1.11.05-1.86-.17-2.23-.74a2.36,2.36,0,0,1,0-2.33l0-.07a1.64,1.64,0,0,0,.13-.61.74.74,0,0,0-.08-.34,1.3,1.3,0,0,0-.46-.49l-.08,0a1.32,1.32,0,0,1-.26-.23.72.72,0,0,0,.05-.14.75.75,0,0,0-.06-1,.33.33,0,0,1-.09-.13l-.05-.11a1.14,1.14,0,0,1,.07-.56.75.75,0,0,0-.05-1.11,2,2,0,0,0-.5-.29l-.08,0a5,5,0,0,1-1.1-.59.4.4,0,0,0-.05-.15s0-.31.52-1.23q.62-1,2-3.09H4L4.09,15A.79.79,0,0,0,4,13.75,1,1,0,0,1,4,13.58v-.06a1.71,1.71,0,0,1,0-.3v-.07a14.46,14.46,0,0,1,3.7-8.32l.1-.09A9.5,9.5,0,0,1,11,2.52a13.43,13.43,0,0,1,3.85-.9c.56-.06,1.11-.1,1.62-.12h.88l.46,0a14.12,14.12,0,0,1,1.7.17,12.62,12.62,0,0,1,4.37,1.52A10.06,10.06,0,0,1,27,6a10.67,10.67,0,0,1,1.8,3.75A11.26,11.26,0,0,1,29.06,13.92Z"/><circle cx="16.78" cy="12.77" r="3.08"/><path d="M16.78,8.57A.56.56,0,0,0,17.34,8V5.21a.56.56,0,0,0-1.12,0V8A.56.56,0,0,0,16.78,8.57Z"/><path d="M16.64,17a.56.56,0,0,0-.56.56v2.8a.56.56,0,0,0,1.12,0v-2.8A.56.56,0,0,0,16.64,17Z"/><path d="M20.42,15.79a.56.56,0,0,0-.79.79l2,2a.56.56,0,1,0,.79-.79Z"/><path d="M13,9.75A.56.56,0,0,0,13.79,9l-2-2a.56.56,0,0,0-.79.79Z"/><path d="M20.52,9.85l2-2a.56.56,0,1,0-.79-.79l-2,2a.56.56,0,0,0,.79.79Z"/><path d="M12.9,15.69l-2,2a.56.56,0,1,0,.79.79l2-2a.56.56,0,1,0-.79-.79Z"/><path d="M24.27,12.28h-2.8a.56.56,0,1,0,0,1.12h2.8a.56.56,0,0,0,0-1.12Z"/><path d="M12.51,12.7a.56.56,0,0,0-.56-.56H9.15a.56.56,0,1,0,0,1.12h2.8A.56.56,0,0,0,12.51,12.7Z"/></g></g></svg>