<svg xmlns="http://www.w3.org/2000/svg" viewBox="0 0 33.5 27.77"><title>methods-icon</title><g id="Layer_2" data-name="Layer 2"><g id="Layer_1-2" data-name="Layer 1"><path d="M.75,7.8h6.3a.75.75,0,0,0,.75-.75V.75A.75.75,0,0,0,7.05,0H.75A.75.75,0,0,0,0,.75v6.3A.75.75,0,0,0,.75,7.8ZM1.5,1.5H6.3V6.3H1.5Z"/><path d="M29.23,20.1a.78.78,0,0,0-1.26,0l-4.15,6.52a.75.75,0,0,0,.63,1.15h8.31a.75.75,0,0,0,.63-1.15Zm-3.42,6.17L28.6,21.9l2.79,4.37Z"/><path d="M20.15,13.83a3.9,3.9,0,1,0-3.9,3.9A3.91,3.91,0,0,0,20.15,13.83Zm-6.3,0a2.4,2.4,0,1,1,2.4,2.4A2.41,2.41,0,0,1,13.85,13.83Z"/><path d="M32.75,2.64h-23a.75.75,0,0,0,0,1.5H32v8.5H23.71l0-1.15-2.47,1.89,2.54,2,0-1.25h9a.75.75,0,0,0,.75-.75v-10A.75.75,0,0,0,32.75,2.64Z"/><path d="M24.22,23.39l-2.54-2,0,1.24H1.5v-8.5h9.25a.75.75,0,0,0,0-1.5H.75a.75.75,0,0,0-.75.75v10a.75.75,0,0,0,.75.75h21l0,1.14Z"/></g></g></svg>