<svg xmlns="http://www.w3.org/2000/svg" viewBox="0 0 34.21 33.58"><title>story-icon</title><g id="Layer_2" data-name="Layer 2"><g id="Layer_1-2" data-name="Layer 1"><path d="M8.64,8.12a4.36,4.36,0,1,0-4.51,0A5.87,5.87,0,0,0,0,13.4v.14s0,6.58,0,6.67a1.87,1.87,0,0,0,1.86,1.87,1.85,1.85,0,0,0,.81-.18l-.22,10A1.65,1.65,0,0,0,4.1,33.58H8.54a1.65,1.65,0,0,0,1.65-1.65V22a1.87,1.87,0,0,0,2.46-1.78V13.4A5.78,5.78,0,0,0,8.64,8.12Zm1.88,12.36L10,19.91a.75.75,0,0,0-1.28.53v11.5a.15.15,0,0,1-.15.15H4.1A.14.14,0,0,1,4,32l.25-11.44V20a.75.75,0,0,0-1.48-.16l0,0-.55.56a.38.38,0,0,1-.62-.26c0-.12,0-6.66,0-6.66v-.13A4.44,4.44,0,0,1,5.23,9.34a.89.89,0,0,0,.69-.89C5.93,8.33,6,7.3,5.3,7a2.87,2.87,0,1,1,2.08.06c-.24.08-.63.35-.58,1.17s.48,1.06.73,1.12a4.38,4.38,0,0,1,3.61,4.06v6.8A.38.38,0,0,1,10.52,20.47Z"/><path d="M20.21,5.48a2.75,2.75,0,1,0-3.5,2.63v5.73a2.73,2.73,0,0,0,0,5.27v5.73a2.75,2.75,0,1,0,1.5,0V19.11a2.73,2.73,0,0,0,0-5.27V8.11A2.74,2.74,0,0,0,20.21,5.48Zm-4,0a1.25,1.25,0,1,1,1.25,1.25A1.25,1.25,0,0,1,16.21,5.48Zm2.5,22a1.25,1.25,0,1,1-1.25-1.25A1.25,1.25,0,0,1,18.71,27.48Zm0-11a1.25,1.25,0,1,1-1.25-1.25A1.25,1.25,0,0,1,18.71,16.48Z"/><path d="M23.44,9.23h7a1.74,1.74,0,0,0,1.73-1.73v-4a1.74,1.74,0,0,0-1.73-1.73h-7a1.74,1.74,0,0,0-1.73,1.73v4A1.74,1.74,0,0,0,23.44,9.23Zm-.23-5.77a.24.24,0,0,1,.23-.23h7a.24.24,0,0,1,.23.23v4a.24.24,0,0,1-.23.23h-7a.24.24,0,0,1-.23-.23Z"/><path d="M32.47,12.73h-9a1.74,1.74,0,0,0-1.73,1.73v4a1.74,1.74,0,0,0,1.73,1.73h9a1.74,1.74,0,0,0,1.73-1.73v-4A1.74,1.74,0,0,0,32.47,12.73Zm.23,5.77a.24.24,0,0,1-.23.23h-9a.24.24,0,0,1-.23-.23v-4a.24.24,0,0,1,.23-.23h9a.24.24,0,0,1,.23.23Z"/><path d="M30.47,23.73h-7a1.74,1.74,0,0,0-1.73,1.73v4a1.74,1.74,0,0,0,1.73,1.73h7a1.74,1.74,0,0,0,1.73-1.73v-4A1.74,1.74,0,0,0,30.47,23.73Zm.23,5.77a.24.24,0,0,1-.23.23h-7a.24.24,0,0,1-.23-.23v-4a.24.24,0,0,1,.23-.23h7a.24.24,0,0,1,.23.23Z"/></g></g></svg>